<?xml version="1.0" standalone="no"?>
<!DOCTYPE svg PUBLIC "-//W3C//DTD SVG 20010904//EN"
 "http://www.w3.org/TR/2001/REC-SVG-20010904/DTD/svg10.dtd">
<svg version="1.0" xmlns="http://www.w3.org/2000/svg"
 width="1040.000000pt" height="1040.000000pt" viewBox="0 0 1040.000000 1040.000000"
 preserveAspectRatio="xMidYMid meet">
<metadata>
Created by potrace 1.14, written by Peter Selinger 2001-2017
</metadata>
<g transform="translate(0.000000,1040.000000) scale(0.100000,-0.100000)"
fill="#000000" stroke="none">
<path d="M140 8394 c-96 -32 -132 -72 -136 -152 -1 -33 4 -71 12 -92 28 -65
59 -87 183 -127 140 -44 175 -60 222 -105 52 -49 73 -103 143 -378 35 -135 67
-258 71 -275 5 -16 9 -34 11 -40 1 -5 14 -55 28 -110 15 -55 29 -111 32 -125
3 -14 8 -34 11 -45 4 -11 8 -24 9 -30 1 -5 20 -80 42 -165 50 -193 163 -630
167 -650 2 -8 11 -42 20 -75 38 -140 108 -413 114 -446 4 -19 11 -40 14 -46 4
-7 9 -24 11 -40 2 -15 16 -71 29 -123 14 -52 38 -140 52 -195 14 -55 28 -107
30 -115 5 -17 33 -132 41 -170 3 -13 9 -29 15 -36 5 -6 7 -13 4 -16 -3 -2 2
-27 9 -54 15 -49 100 -375 117 -449 13 -52 20 -81 67 -263 43 -166 41 -156 47
-174 7 -25 66 -253 70 -273 2 -11 10 -45 19 -77 8 -31 18 -67 20 -80 3 -12 15
-59 27 -103 11 -44 22 -87 24 -95 2 -8 16 -60 30 -115 15 -55 31 -116 35 -135
5 -19 25 -98 46 -175 36 -138 37 -143 41 -360 4 -228 10 -272 46 -307 54 -51
25 -50 971 -50 485 0 888 1 896 3 40 10 77 40 99 78 23 41 23 51 26 284 3 246
9 303 52 446 9 31 18 61 19 67 1 7 19 70 39 140 20 71 39 136 40 144 2 8 4 15
5 15 1 0 3 7 5 15 8 39 100 367 131 470 9 30 18 61 19 70 2 8 4 15 5 15 1 0 3
9 5 19 2 10 10 40 18 65 8 25 18 60 23 76 11 43 11 45 13 48 2 1 4 13 7 27 2
14 13 54 24 90 48 162 62 212 65 228 2 9 4 17 6 17 1 0 3 9 5 20 4 25 9 46 17
65 3 8 40 139 82 290 42 151 85 304 96 340 11 36 21 74 24 85 2 11 23 85 45
165 23 80 51 181 63 225 12 44 24 82 27 85 3 3 6 12 7 20 5 42 15 76 26 85 6
6 9 6 5 1 -4 -5 -3 -16 2 -26 5 -9 11 -28 14 -41 8 -41 13 -61 36 -149 12 -47
24 -96 27 -109 2 -14 7 -29 10 -35 4 -5 10 -26 14 -45 4 -20 26 -108 49 -196
24 -88 44 -167 45 -175 1 -8 5 -22 8 -30 4 -8 11 -35 17 -60 15 -63 16 -68 34
-135 20 -72 25 -89 30 -112 7 -28 24 -95 36 -138 6 -22 13 -49 15 -61 6 -27
50 -194 70 -269 9 -33 19 -69 21 -80 2 -11 24 -96 49 -190 25 -93 47 -179 49
-190 3 -11 12 -47 21 -80 9 -33 18 -67 20 -75 14 -60 106 -414 110 -420 2 -3
7 -20 10 -36 4 -26 92 -360 116 -444 6 -19 12 -137 14 -261 3 -246 8 -268 62
-307 16 -11 43 -23 61 -27 44 -9 1783 -9 1813 0 77 24 112 80 115 182 1 39 5
76 8 82 4 5 3 12 -1 14 -13 8 -5 269 11 367 2 14 47 204 101 430 14 58 27 114
29 125 4 23 43 193 56 245 10 39 60 254 66 285 2 11 6 29 9 40 3 11 14 58 24
105 11 47 22 94 25 105 3 11 19 81 36 155 17 74 38 164 46 200 9 36 18 76 21
90 4 25 31 140 59 255 15 61 21 90 30 135 3 14 10 43 16 65 5 22 12 47 13 55
2 8 9 38 15 65 6 28 14 61 16 75 3 14 7 33 10 42 3 9 7 25 9 35 2 10 9 41 15
68 6 28 14 61 17 75 9 44 11 55 13 55 1 0 3 8 5 19 2 10 9 39 15 65 6 25 12
55 14 66 3 11 12 52 21 90 9 39 18 78 21 88 2 10 5 26 8 35 3 9 7 28 10 42 3
14 7 34 10 45 28 118 58 246 62 270 3 17 10 48 16 70 5 22 12 47 13 55 2 8 10
44 19 80 8 36 18 80 21 99 3 19 8 37 10 41 2 3 7 20 10 36 3 16 7 34 9 39 1 6
6 26 10 45 4 19 18 80 31 135 13 55 26 111 29 125 3 14 15 66 26 115 12 50 23
98 25 109 13 60 57 224 64 241 5 11 19 45 31 75 23 57 87 177 105 197 5 6 21
26 35 44 44 58 149 157 208 196 31 21 118 68 193 104 140 69 208 122 210 163
1 12 2 36 3 55 2 32 -22 91 -48 116 -7 7 -28 21 -46 31 -33 18 -73 19 -832 21
-836 3 -815 4 -881 -41 -59 -40 -81 -143 -46 -213 19 -38 85 -93 111 -93 8 0
18 -3 21 -7 4 -3 28 -14 54 -23 65 -23 167 -72 171 -82 2 -4 9 -8 16 -8 18 0
127 -101 160 -148 47 -68 78 -175 81 -279 2 -50 -1 -109 -5 -130 -5 -21 -11
-51 -14 -68 -6 -33 -8 -41 -30 -132 -9 -34 -18 -77 -21 -94 -3 -18 -8 -35 -10
-39 -2 -4 -7 -22 -10 -41 -3 -19 -11 -52 -17 -74 -6 -22 -12 -46 -14 -52 -1
-7 -14 -63 -29 -125 -15 -62 -28 -120 -30 -128 -2 -8 -12 -53 -24 -100 -11
-47 -23 -100 -26 -119 -3 -19 -8 -37 -10 -41 -2 -3 -6 -17 -9 -31 -2 -13 -16
-73 -31 -134 -15 -60 -28 -120 -31 -132 -2 -12 -20 -88 -40 -170 -20 -81 -38
-159 -40 -172 -3 -14 -14 -61 -25 -105 -11 -45 -22 -92 -25 -106 -2 -14 -7
-33 -10 -42 -3 -9 -7 -25 -9 -35 -2 -10 -9 -40 -15 -68 -6 -27 -13 -57 -15
-65 -1 -8 -8 -35 -15 -60 -7 -25 -14 -54 -16 -65 -2 -11 -7 -31 -10 -45 -3
-14 -7 -34 -9 -45 -2 -11 -4 -20 -5 -20 -1 0 -4 -11 -7 -25 -7 -39 -11 -55
-13 -55 -1 0 -4 -11 -6 -24 -2 -14 -11 -50 -19 -80 -8 -31 -17 -69 -20 -86 -3
-16 -7 -34 -9 -40 -2 -5 -6 -21 -9 -35 -3 -14 -14 -59 -24 -100 -10 -41 -18
-79 -19 -85 -1 -5 -3 -12 -4 -15 -2 -7 -7 -29 -14 -67 -3 -18 -11 -45 -17 -60
-6 -15 -10 -29 -9 -31 2 -3 -8 -52 -31 -147 -5 -22 -12 -49 -14 -60 -2 -11
-18 -78 -35 -150 -56 -234 -72 -300 -76 -320 -21 -93 -32 -138 -34 -130 -2 13
-4 20 -36 140 -14 55 -27 107 -29 115 -2 8 -20 78 -40 155 -19 77 -38 153 -41
169 -2 16 -9 38 -15 48 -6 11 -9 22 -6 24 3 3 -2 26 -10 52 -8 26 -17 58 -20
72 -7 34 -9 43 -16 60 -5 14 -14 53 -21 95 -2 11 -10 40 -17 65 -7 25 -14 52
-15 60 -2 8 -12 51 -24 95 -11 44 -23 91 -26 105 -2 14 -7 32 -10 40 -4 8 -15
51 -25 95 -11 44 -22 88 -24 98 -3 9 -7 25 -9 35 -2 9 -14 55 -26 102 -23 92
-56 223 -70 280 -4 19 -11 44 -14 55 -3 11 -13 49 -21 85 -21 84 -34 136 -45
180 -5 19 -13 53 -18 75 -5 22 -12 47 -15 55 -4 8 -9 26 -11 40 -3 14 -13 54
-22 90 -9 36 -20 81 -24 100 -4 19 -15 63 -24 97 -10 35 -19 71 -21 80 -2 10
-11 45 -20 78 -9 33 -17 69 -19 80 -2 11 -4 20 -5 20 -3 0 -7 15 -16 60 -13
57 -13 60 -15 60 -2 0 -5 13 -13 55 -3 14 -10 36 -15 50 -5 14 -10 28 -10 33
0 4 -3 20 -6 35 -4 15 -8 36 -11 47 -2 11 -17 71 -33 133 -17 62 -31 115 -31
117 -1 3 -1 6 -2 8 0 1 -2 9 -4 17 -1 8 -19 80 -39 160 -20 80 -38 154 -41
165 -2 11 -18 72 -34 135 -64 246 -64 327 -1 387 28 26 93 49 232 84 45 11
106 44 131 70 56 59 53 179 -6 234 -57 53 35 50 -1428 52 -1089 2 -1363 0
-1388 -10 -57 -24 -99 -68 -107 -111 -10 -51 -10 -53 -1 -96 15 -68 48 -91
231 -156 165 -59 189 -89 252 -319 14 -49 27 -101 30 -113 3 -13 12 -49 20
-80 9 -32 20 -73 24 -92 7 -29 43 -164 50 -188 5 -15 9 -30 33 -127 14 -55 46
-181 72 -279 37 -143 44 -184 36 -205 -11 -28 -100 -342 -106 -373 -2 -10 -9
-33 -15 -51 -6 -18 -52 -174 -101 -347 -50 -173 -91 -319 -93 -325 -2 -5 -6
-23 -11 -40 -4 -16 -28 -100 -52 -185 -25 -85 -46 -159 -47 -165 -2 -5 -9 -30
-16 -55 -7 -25 -14 -49 -16 -55 -1 -5 -14 -51 -28 -101 -15 -50 -28 -100 -31
-110 -2 -10 -27 -98 -55 -194 -29 -96 -54 -183 -56 -192 -6 -28 -12 -47 -40
-143 -14 -49 -27 -94 -28 -100 -1 -5 -5 -16 -9 -22 -5 -7 -6 -13 -3 -13 3 0 1
-12 -5 -27 -6 -16 -12 -35 -14 -43 -2 -8 -11 -40 -20 -70 -21 -75 -24 -87 -29
-107 -2 -10 -9 -31 -16 -48 -6 -16 -11 -31 -10 -33 0 -1 -7 -28 -16 -60 -10
-31 -17 -63 -17 -69 0 -7 -3 -13 -7 -13 -4 0 -7 -6 -7 -14 0 -24 -25 -106 -33
-106 -4 0 -11 17 -15 38 -5 20 -9 42 -11 47 -2 6 -5 19 -7 30 -3 11 -10 40
-17 65 -7 25 -14 53 -16 63 -2 10 -6 27 -9 37 -3 10 -8 28 -10 39 -5 22 -12
49 -20 79 -7 26 -36 145 -40 162 -10 47 -47 189 -55 215 -5 17 -11 41 -14 55
-3 14 -12 54 -21 90 -9 36 -18 73 -20 83 -2 9 -6 21 -9 25 -3 5 -8 24 -11 43
-3 19 -8 42 -11 51 -3 9 -7 25 -9 35 -4 18 -31 121 -41 158 -3 11 -7 34 -10
50 -3 17 -8 37 -11 45 -7 18 -10 29 -16 55 -3 11 -21 86 -41 167 -21 81 -39
155 -41 165 -2 10 -12 45 -21 78 -9 33 -18 69 -19 80 -2 11 -16 65 -30 120
-15 55 -28 108 -30 117 -2 10 -20 82 -40 160 -20 79 -38 150 -40 158 -2 8 -24
98 -50 200 -26 102 -48 192 -50 200 -2 8 -14 53 -25 100 -12 47 -23 92 -25
100 -1 8 -9 35 -16 60 -6 25 -13 52 -15 60 -1 8 -12 53 -24 100 -12 47 -23 92
-25 100 -2 8 -20 80 -40 160 -20 80 -39 152 -40 160 -2 8 -20 78 -40 155 -20
77 -38 151 -41 165 -3 14 -9 39 -14 55 -31 100 -31 185 -1 248 13 26 29 47 37
47 8 0 14 4 14 9 0 9 31 19 85 28 17 3 38 9 47 14 9 5 21 9 25 8 4 -1 11 0 16
1 9 3 15 4 62 14 99 20 154 73 161 157 6 77 -24 132 -92 164 l-52 25 -1364 -1
c-749 0 -1370 -3 -1378 -5z"/>
<path d="M9147 4043 c-2 -1 -18 -4 -37 -8 -171 -27 -316 -87 -450 -184 -71
-51 -206 -199 -253 -278 -66 -110 -119 -247 -132 -338 -14 -100 -17 -131 -17
-205 0 -111 16 -210 47 -307 30 -91 89 -216 110 -233 8 -7 15 -18 15 -25 0
-12 106 -143 146 -180 59 -54 85 -75 92 -75 5 0 17 -9 27 -20 10 -11 24 -20
31 -20 7 0 14 -4 16 -9 6 -16 172 -89 248 -110 99 -27 146 -33 260 -32 90 0
111 2 203 15 94 14 311 107 365 156 9 8 32 26 51 39 55 39 171 162 171 181 0
5 4 10 9 10 19 0 127 203 153 290 18 58 34 126 44 188 9 50 8 227 0 277 -4 22
-9 49 -10 60 -6 43 -29 129 -42 154 -8 14 -14 30 -14 35 0 13 -43 99 -57 114
-7 7 -13 18 -13 23 0 20 -85 126 -159 199 -159 158 -345 249 -560 277 -45 5
-240 11 -244 6z"/>
</g>
</svg>
